<mxfile host="app.diagrams.net" modified="2023-05-03T22:23:08.856Z" agent="Mozilla/5.0 (Windows NT 10.0; Win64; x64) AppleWebKit/537.36 (KHTML, like Gecko) Chrome/111.0.0.0 Safari/537.36 OPR/97.0.0.0 (Edition std-1)" etag="6gVTXFGpsx9rH1Afi0u9" version="21.2.7" type="device">
  <diagram name="Página-1" id="eraFyOt5bU_ge2Rh74fk">
    <mxGraphModel dx="862" dy="656" grid="1" gridSize="10" guides="1" tooltips="1" connect="1" arrows="1" fold="1" page="1" pageScale="1" pageWidth="827" pageHeight="1169" math="0" shadow="0">
      <root>
        <mxCell id="0" />
        <mxCell id="1" parent="0" />
        <mxCell id="mF3q0Rq8tJbmtWF1qKPC-9" style="edgeStyle=orthogonalEdgeStyle;rounded=0;orthogonalLoop=1;jettySize=auto;html=1;" edge="1" parent="1" source="mF3q0Rq8tJbmtWF1qKPC-3" target="mF3q0Rq8tJbmtWF1qKPC-5">
          <mxGeometry relative="1" as="geometry" />
        </mxCell>
        <mxCell id="mF3q0Rq8tJbmtWF1qKPC-3" value="Inicio" style="ellipse;whiteSpace=wrap;html=1;" vertex="1" parent="1">
          <mxGeometry x="10" y="520" width="80" height="50" as="geometry" />
        </mxCell>
        <mxCell id="mF3q0Rq8tJbmtWF1qKPC-17" style="edgeStyle=orthogonalEdgeStyle;rounded=0;orthogonalLoop=1;jettySize=auto;html=1;entryX=0;entryY=0.5;entryDx=0;entryDy=0;" edge="1" parent="1" source="mF3q0Rq8tJbmtWF1qKPC-5" target="mF3q0Rq8tJbmtWF1qKPC-21">
          <mxGeometry relative="1" as="geometry">
            <mxPoint x="210" y="470" as="targetPoint" />
          </mxGeometry>
        </mxCell>
        <mxCell id="mF3q0Rq8tJbmtWF1qKPC-18" style="edgeStyle=orthogonalEdgeStyle;rounded=0;orthogonalLoop=1;jettySize=auto;html=1;entryX=0;entryY=0.5;entryDx=0;entryDy=0;" edge="1" parent="1" source="mF3q0Rq8tJbmtWF1qKPC-5" target="mF3q0Rq8tJbmtWF1qKPC-22">
          <mxGeometry relative="1" as="geometry">
            <mxPoint x="210" y="610" as="targetPoint" />
          </mxGeometry>
        </mxCell>
        <mxCell id="mF3q0Rq8tJbmtWF1qKPC-5" value="usuário&lt;br&gt;possui conta?" style="rhombus;whiteSpace=wrap;html=1;" vertex="1" parent="1">
          <mxGeometry x="140" y="505" width="140" height="80" as="geometry" />
        </mxCell>
        <mxCell id="mF3q0Rq8tJbmtWF1qKPC-6" style="edgeStyle=orthogonalEdgeStyle;rounded=0;orthogonalLoop=1;jettySize=auto;html=1;exitX=0.5;exitY=1;exitDx=0;exitDy=0;" edge="1" parent="1" source="mF3q0Rq8tJbmtWF1qKPC-3" target="mF3q0Rq8tJbmtWF1qKPC-3">
          <mxGeometry relative="1" as="geometry" />
        </mxCell>
        <mxCell id="mF3q0Rq8tJbmtWF1qKPC-19" value="Não" style="text;html=1;strokeColor=none;fillColor=none;align=center;verticalAlign=middle;whiteSpace=wrap;rounded=0;" vertex="1" parent="1">
          <mxGeometry x="200" y="410" width="60" height="30" as="geometry" />
        </mxCell>
        <mxCell id="mF3q0Rq8tJbmtWF1qKPC-20" value="Sim" style="text;html=1;strokeColor=none;fillColor=none;align=center;verticalAlign=middle;whiteSpace=wrap;rounded=0;" vertex="1" parent="1">
          <mxGeometry x="200" y="680" width="60" height="30" as="geometry" />
        </mxCell>
        <mxCell id="mF3q0Rq8tJbmtWF1qKPC-21" value="Deseja criar conta?" style="rhombus;whiteSpace=wrap;html=1;" vertex="1" parent="1">
          <mxGeometry x="270" y="400" width="140" height="80" as="geometry" />
        </mxCell>
        <mxCell id="mF3q0Rq8tJbmtWF1qKPC-22" value="Deseja criar conta?" style="rhombus;whiteSpace=wrap;html=1;" vertex="1" parent="1">
          <mxGeometry x="260" y="640" width="140" height="80" as="geometry" />
        </mxCell>
      </root>
    </mxGraphModel>
  </diagram>
</mxfile>
